<?xml version="1.0" standalone="no"?>
<!DOCTYPE svg PUBLIC "-//W3C//DTD SVG 20010904//EN"
 "http://www.w3.org/TR/2001/REC-SVG-20010904/DTD/svg10.dtd">
<svg version="1.0" xmlns="http://www.w3.org/2000/svg"
 width="500.000000pt" height="500.000000pt" viewBox="0 0 500.000000 500.000000"
 preserveAspectRatio="xMidYMid meet">

<g transform="translate(0.000000,500.000000) scale(0.100000,-0.100000)"
fill="#5271ff" stroke="none">
<path d="M2370 4212 c-63 -2 -247 -27 -319 -43 -28 -6 -52 -17 -55 -26 -5 -12
-1 -14 16 -10 111 27 324 53 425 52 36 0 53 4 53 13 0 6 -3 12 -7 13 -31 3
-66 4 -113 1z"/>
<path d="M2503 4207 c-10 -16 6 -20 108 -29 56 -4 113 -10 128 -13 14 -3 53
-10 86 -16 33 -6 84 -17 114 -25 55 -14 73 -12 54 7 -33 33 -474 102 -490 76z"/>
<path d="M1905 4130 c-93 -28 -187 -65 -262 -104 -57 -30 -63 -36 -40 -36 16
0 52 11 80 24 96 43 172 73 235 91 35 11 62 24 62 32 0 16 -1 16 -75 -7z"/>
<path d="M3010 4117 c0 -7 24 -21 53 -31 79 -28 183 -74 238 -107 46 -27 116
-42 94 -20 -19 18 -230 120 -301 146 -82 29 -84 29 -84 12z"/>
<path d="M1518 3958 c-21 -11 -38 -26 -38 -34 0 -20 8 -18 75 21 55 32 57 35
30 34 -16 0 -47 -9 -67 -21z"/>
<path d="M3434 3900 c64 -45 66 -46 66 -25 0 20 -69 65 -99 65 -20 0 -15 -7
33 -40z"/>
<path d="M1455 3921 c-3 -6 -26 -24 -51 -41 -100 -67 -238 -199 -338 -322 -50
-61 -53 -68 -33 -68 8 0 29 19 47 43 105 131 232 253 348 331 24 16 42 37 42
47 0 21 -6 24 -15 10z"/>
<path d="M3510 3863 c0 -11 20 -34 49 -56 104 -80 314 -306 334 -359 4 -10 16
-18 27 -18 20 0 20 1 3 28 -41 65 -177 222 -245 282 -134 120 -168 145 -168
123z"/>
<path d="M988 3455 c-10 -13 -18 -36 -18 -50 0 -14 -4 -24 -9 -21 -18 12 -110
-164 -166 -321 -29 -80 -28 -73 -11 -73 8 0 25 31 40 76 30 82 120 274 149
314 57 80 67 100 49 100 -9 0 -25 -11 -34 -25z"/>
<path d="M1565 3455 c-102 -19 -279 -65 -289 -76 -11 -10 -87 -1344 -79 -1366
9 -23 51 -26 227 -20 253 9 355 40 475 142 134 115 240 288 287 470 35 136 44
352 20 476 -42 207 -161 342 -334 378 -69 14 -219 13 -307 -4z m280 -55 c3 -5
-3 -10 -15 -10 -12 0 -18 5 -15 10 3 6 10 10 15 10 5 0 12 -4 15 -10z m-265
-35 c0 -8 -7 -15 -15 -15 -9 0 -12 6 -9 15 4 8 10 15 15 15 5 0 9 -7 9 -15z
m255 4 c10 -15 -1 -23 -20 -15 -9 3 -13 10 -10 16 8 13 22 13 30 -1z m-390
-19 c3 -5 -1 -10 -9 -10 -9 0 -16 5 -16 10 0 6 4 10 9 10 6 0 13 -4 16 -10z
m270 -60 c-3 -5 -13 -10 -21 -10 -8 0 -12 5 -9 10 3 6 13 10 21 10 8 0 12 -4
9 -10z m333 -147 c-4 -22 -48 -31 -48 -10 0 19 10 27 32 27 13 0 18 -6 16 -17z
m-255 -25 c37 -19 60 -65 81 -161 5 -19 12 -27 24 -25 10 2 17 -3 17 -12 0 -9
-7 -14 -17 -12 -24 4 -25 -46 -1 -63 18 -13 10 -37 -10 -29 -8 3 -17 -23 -28
-81 -23 -116 -94 -261 -149 -305 -40 -31 -125 -70 -155 -70 -11 0 -15 11 -15
41 0 23 -7 47 -15 55 -20 21 -19 35 3 41 17 4 20 28 34 251 9 159 11 254 5
266 -6 12 -5 26 1 40 6 11 12 28 15 36 7 27 171 49 210 28z m-484 -124 c-12
-92 -35 -132 -25 -44 14 118 19 141 27 133 6 -6 5 -42 -2 -89z m736 86 c3 -5
-1 -10 -10 -10 -9 0 -13 5 -10 10 3 6 8 10 10 10 2 0 7 -4 10 -10z m-145 -20
c0 -5 -4 -10 -10 -10 -5 0 -10 5 -10 10 0 6 5 10 10 10 6 0 10 -4 10 -10z
m168 -35 c0 -14 -4 -25 -9 -25 -5 0 -9 11 -9 25 0 14 4 25 9 25 5 0 9 -11 9
-25z m-81 -1 c8 -21 -4 -29 -22 -14 -8 7 -21 10 -30 7 -14 -6 -29 6 -20 15 12
12 67 6 72 -8z m90 -100 c-9 -9 -28 6 -21 18 4 6 10 6 17 -1 6 -6 8 -13 4 -17z
m-95 -9 c0 -5 -5 -11 -11 -13 -6 -2 -11 4 -11 13 0 9 5 15 11 13 6 -2 11 -8
11 -13z m138 -15 c0 -5 -4 -10 -10 -10 -5 0 -10 5 -10 10 0 6 5 10 10 10 6 0
10 -4 10 -10z m-177 -40 c22 -26 22 -32 -4 -28 -24 3 -48 48 -26 48 7 0 20 -9
30 -20z m77 -40 c0 -5 -4 -10 -10 -10 -5 0 -10 5 -10 10 0 6 5 10 10 10 6 0
10 -4 10 -10z m-40 -51 c7 -11 9 -23 6 -27 -3 -3 -6 0 -6 6 0 7 -7 12 -15 12
-8 0 -15 7 -15 15 0 22 17 18 30 -6z m-30 -29 c0 -5 -4 -10 -10 -10 -5 0 -10
5 -10 10 0 6 5 10 10 10 6 0 10 -4 10 -10z m-635 -20 c3 -5 -1 -10 -9 -10 -9
0 -16 5 -16 10 0 6 4 10 9 10 6 0 13 -4 16 -10z m703 -8 c2 -7 -7 -12 -22 -12
-14 0 -26 5 -26 11 0 5 5 7 10 4 6 -3 10 -1 10 5 0 15 22 8 28 -8z m22 -48 c0
-17 4 -23 13 -18 10 6 10 4 0 -7 -7 -7 -13 -22 -13 -33 0 -20 0 -20 -14 0 -19
26 -18 84 1 84 7 0 13 -11 13 -26z m41 11 c-1 -15 -24 -12 -29 3 -3 9 2 13 12
10 10 -1 17 -7 17 -13z m-86 -66 c-6 -9 -35 -1 -35 10 0 4 3 11 7 14 8 9 34
-13 28 -24z m-45 -13 c0 -3 -4 -8 -10 -11 -5 -3 -10 -1 -10 4 0 6 5 11 10 11
6 0 10 -2 10 -4z m28 -34 c2 -7 -3 -12 -12 -12 -9 0 -16 7 -16 16 0 17 22 14
28 -4z m-498 -42 c0 -5 -7 -10 -15 -10 -8 0 -15 5 -15 10 0 6 7 10 15 10 8 0
15 -4 15 -10z m538 -27 c2 -8 -5 -13 -17 -13 -21 0 -35 13 -24 24 10 10 36 3
41 -11z m-538 -243 c0 -5 -4 -10 -10 -10 -5 0 -10 5 -10 10 0 6 5 10 10 10 6
0 10 -4 10 -10z m-120 -29 c0 -5 -7 -12 -16 -15 -22 -9 -24 -8 -24 9 0 8 9 15
20 15 11 0 20 -4 20 -9z m-40 -55 c0 -29 -19 -44 -31 -25 -16 25 -10 49 11 49
15 0 20 -7 20 -24z m-10 -76 c0 -5 -7 -10 -16 -10 -8 0 -12 5 -9 10 3 6 10 10
16 10 5 0 9 -4 9 -10z"/>
<path d="M3105 3463 c-197 -41 -311 -70 -326 -83 -17 -14 -22 -74 -55 -689
-37 -662 -37 -674 -18 -689 16 -12 50 -13 199 -8 205 7 283 21 381 67 94 46
220 172 292 294 127 216 173 530 112 769 -45 176 -150 290 -305 330 -55 15
-228 20 -280 9z m235 -63 c0 -5 -7 -10 -15 -10 -8 0 -15 5 -15 10 0 6 7 10 15
10 8 0 15 -4 15 -10z m-269 -43 c-13 -13 -26 -3 -16 12 3 6 11 8 17 5 6 -4 6
-10 -1 -17z m259 8 c0 -8 -7 -15 -15 -15 -8 0 -15 7 -15 15 0 8 7 15 15 15 8
0 15 -7 15 -15z m-385 -15 c3 -5 -1 -10 -9 -10 -9 0 -16 5 -16 10 0 6 4 10 9
10 6 0 13 -4 16 -10z m265 -60 c0 -5 -7 -10 -15 -10 -8 0 -15 5 -15 10 0 6 7
10 15 10 8 0 15 -4 15 -10z m340 -144 c0 -18 -39 -31 -52 -18 -15 15 0 32 28
32 14 0 24 -6 24 -14z m-234 -49 c29 -33 54 -120 55 -190 1 -44 5 -56 20 -60
13 -4 16 0 14 14 -2 11 1 19 7 19 11 0 37 -29 38 -41 0 -6 -58 -23 -72 -20 -4
0 -10 -16 -13 -37 -22 -133 -91 -288 -153 -344 -37 -33 -133 -78 -169 -78 -13
0 -15 8 -11 44 4 32 2 46 -8 50 -18 7 -18 46 0 46 15 0 19 34 37 316 9 139 8
186 -1 203 -9 18 -9 25 3 34 9 7 17 21 19 32 2 15 16 23 58 32 85 18 149 11
176 -20z m-507 -61 c-5 -17 -9 -49 -9 -71 0 -37 -14 -75 -23 -65 -5 5 12 156
19 180 10 30 22 -12 13 -44z m731 44 c0 -5 -4 -10 -10 -10 -5 0 -10 5 -10 10
0 6 5 10 10 10 6 0 10 -4 10 -10z m-150 -20 c0 -5 -2 -10 -4 -10 -3 0 -8 5
-11 10 -3 6 -1 10 4 10 6 0 11 -4 11 -10z m172 -42 c-5 -21 -6 -21 -12 -2 -8
21 -3 37 10 29 4 -3 6 -15 2 -27z m-82 12 c12 -7 12 -12 2 -22 -10 -10 -14
-10 -21 1 -5 8 -16 11 -25 8 -16 -6 -30 6 -19 17 9 9 46 7 63 -4z m91 -93 c-1
-12 -15 -9 -19 4 -3 6 1 10 8 8 6 -3 11 -8 11 -12z m-165 -35 c-4 -3 -12 0
-19 7 -9 9 -9 14 3 21 11 7 16 5 18 -6 2 -9 1 -18 -2 -22z m74 20 c0 -13 -12
-22 -22 -16 -10 6 -1 24 13 24 5 0 9 -4 9 -8z m30 -102 c0 -5 -4 -10 -10 -10
-5 0 -10 5 -10 10 0 6 5 10 10 10 6 0 10 -4 10 -10z m-37 -36 c-3 -9 0 -20 8
-24 7 -5 10 -12 7 -15 -4 -4 -16 2 -28 13 -21 19 -21 21 -3 31 24 14 23 14 16
-5z m-33 -44 c0 -5 -2 -10 -4 -10 -3 0 -8 5 -11 10 -3 6 -1 10 4 10 6 0 11 -4
11 -10z m-620 -26 c0 -2 -7 -4 -15 -4 -8 0 -15 4 -15 10 0 5 7 7 15 4 8 -4 15
-8 15 -10z m694 1 c4 -11 -2 -15 -24 -15 -46 0 -38 20 11 29 4 0 9 -6 13 -14z
m21 -48 c6 -12 9 -34 7 -50 -3 -23 -5 -25 -18 -13 -14 15 -20 86 -6 86 4 0 12
-10 17 -23z m45 8 c0 -8 -7 -15 -15 -15 -8 0 -15 7 -15 15 0 8 7 15 15 15 8 0
15 -7 15 -15z m-92 -64 c3 -8 -1 -12 -9 -9 -7 2 -15 10 -17 17 -3 8 1 12 9 9
7 -2 15 -10 17 -17z m-43 -21 c-3 -5 -10 -10 -16 -10 -5 0 -9 5 -9 10 0 6 7
10 16 10 8 0 12 -4 9 -10z m21 -38 c-22 -5 -30 3 -21 18 5 8 11 7 22 -2 15
-12 14 -13 -1 -16z m-491 -32 c-3 -5 -10 -10 -16 -10 -5 0 -9 5 -9 10 0 6 7
10 16 10 8 0 12 -4 9 -10z m415 -4 c0 -3 -4 -8 -10 -11 -5 -3 -10 -1 -10 4 0
6 5 11 10 11 6 0 10 -2 10 -4z m118 -24 c2 -7 -6 -12 -17 -12 -21 0 -27 11
-14 24 9 9 26 2 31 -12z m29 -68 c-3 -3 -12 -4 -19 -1 -8 3 -5 6 6 6 11 1 17
-2 13 -5z m-683 -203 c7 -11 -22 -23 -35 -15 -5 3 -7 10 -4 15 8 12 32 12 39
0z m-40 -48 c4 -9 0 -23 -8 -32 -13 -13 -16 -11 -26 13 -13 36 -13 36 9 36 10
0 22 -8 25 -17z m-9 -83 c3 -6 -4 -10 -17 -10 -18 0 -20 2 -8 10 19 12 18 12
25 0z"/>
<path d="M3920 3411 c0 -6 5 -13 10 -16 6 -4 21 -27 35 -53 l24 -47 1 33 c0
37 -33 92 -56 92 -8 0 -14 -4 -14 -9z"/>
<path d="M4001 3300 c-1 -20 3 -40 8 -45 15 -15 84 -181 110 -262 14 -42 29
-73 37 -73 11 0 10 9 -1 48 -31 101 -66 191 -109 277 -42 84 -45 88 -45 55z"/>
<path d="M757 2958 c-60 -266 -84 -468 -56 -468 11 0 15 16 17 58 2 58 21 212
27 222 2 3 6 25 10 49 3 24 15 70 25 102 17 56 17 59 0 59 -10 0 -20 -10 -23
-22z"/>
<path d="M4151 2893 c0 -10 8 -60 18 -112 14 -77 19 -91 29 -78 17 20 -15 207
-35 207 -7 0 -13 -8 -12 -17z"/>
<path d="M685 2443 c2 -20 5 -72 6 -114 1 -43 6 -104 11 -136 4 -32 11 -73 13
-91 10 -69 28 -122 40 -122 10 0 10 12 0 63 -7 34 -16 85 -19 112 -4 28 -9 64
-11 80 -4 24 -11 133 -15 233 0 6 -6 12 -14 12 -10 0 -13 -10 -11 -37z"/>
<path d="M3987 2119 c-4 -13 7 -28 34 -50 21 -17 39 -34 39 -39 0 -4 -17 -11
-37 -14 -61 -11 -73 -16 -73 -32 0 -10 6 -13 18 -10 58 18 118 25 154 20 32
-6 40 -4 36 7 -2 7 -19 18 -36 23 -18 5 -54 32 -81 61 -41 43 -50 49 -54 34z"/>
<path d="M750 1943 c19 -65 49 -151 65 -188 45 -106 95 -205 105 -205 5 0 10
-7 10 -15 0 -23 30 -65 46 -65 18 0 18 0 -12 54 -14 25 -32 46 -39 46 -8 0
-13 8 -12 18 0 11 -15 52 -35 93 -38 79 -98 245 -98 273 0 9 -8 16 -19 16 -17
0 -18 -4 -11 -27z"/>
<path d="M3865 1790 c-40 -80 -40 -80 -20 -80 8 0 15 4 15 8 0 5 6 16 13 26
13 17 17 16 87 -19 57 -29 75 -34 81 -23 6 9 -12 23 -67 51 -61 31 -74 41 -69
55 15 36 17 52 6 52 -6 0 -27 -31 -46 -70z"/>
<path d="M3738 1568 c-18 -15 -62 -78 -57 -82 2 -1 39 -28 82 -60 61 -45 79
-53 83 -41 4 10 -4 23 -21 37 -24 19 -25 22 -11 36 8 9 34 16 57 16 54 1 64
24 12 28 -29 2 -39 8 -41 23 -9 48 -67 72 -104 43z m70 -42 c5 -22 -17 -66
-32 -66 -6 1 -21 9 -34 20 -22 18 -22 20 -6 45 20 31 67 32 72 1z"/>
<path d="M992 1428 c100 -142 215 -263 365 -386 44 -35 53 -40 53 -24 0 11
-24 38 -58 65 -113 88 -291 279 -330 352 -7 14 -21 25 -33 25 -19 0 -19 -1 3
-32z"/>
<path d="M3531 1326 c-8 -10 -1 -36 28 -102 38 -88 58 -107 53 -48 -2 21 5 37
21 53 21 19 27 20 51 10 20 -9 29 -10 38 -1 9 9 2 16 -28 28 -21 9 -64 29 -96
45 -45 23 -58 26 -67 15z m93 -87 c-23 -26 -31 -24 -49 11 -24 46 -18 52 26
30 39 -21 40 -22 23 -41z"/>
<path d="M3345 1170 c-3 -6 4 -24 15 -41 22 -29 22 -31 4 -44 -11 -8 -30 -20
-43 -27 -24 -13 -33 -7 -61 42 -7 12 -11 12 -21 3 -16 -16 85 -175 107 -166
18 7 17 13 -6 43 -11 14 -20 30 -20 37 0 10 59 53 73 53 4 0 17 -16 30 -35 19
-28 26 -33 35 -22 8 10 -1 31 -40 90 -50 76 -61 86 -73 67z"/>
<path d="M1420 1006 c0 -18 64 -59 86 -54 11 2 3 13 -29 36 -51 36 -57 38 -57
18z"/>
<path d="M3023 994 c-29 -13 -53 -28 -53 -34 0 -14 12 -13 64 10 25 10 46 16
46 12 0 -4 -12 -45 -25 -91 -14 -47 -21 -89 -17 -93 5 -5 38 3 73 18 77 33 75
32 62 45 -8 8 -23 4 -53 -11 -23 -12 -44 -19 -47 -16 -3 3 4 40 16 84 11 43
21 84 21 90 0 18 -29 13 -87 -14z"/>
<path d="M1560 904 c95 -52 206 -103 283 -129 55 -20 67 -21 67 -9 0 8 -8 17
-17 20 -74 23 -246 99 -295 130 -20 13 -52 24 -70 24 -31 0 -30 -2 32 -36z"/>
<path d="M2717 898 c-23 -6 -36 -15 -34 -23 3 -6 13 -48 23 -93 11 -45 23 -82
29 -82 30 0 91 25 111 45 56 56 5 169 -74 164 -9 -1 -34 -6 -55 -11z m102 -44
c12 -15 21 -37 21 -50 0 -24 -31 -64 -49 -64 -5 0 -16 -2 -24 -6 -20 -7 -54
125 -35 137 27 17 66 9 87 -17z"/>
<path d="M1922 761 c5 -25 188 -64 202 -43 2 4 -43 19 -100 33 -91 22 -104 24
-102 10z"/>
</g>
</svg>
